<?xml version="1.0" encoding="UTF-8" standalone="no"?>
<!-- Created with Inkscape (http://www.inkscape.org/) -->

<svg
   width="108"
   height="108"
   viewBox="0 0 108 108"
   version="1.1"
   id="svg1"
   xml:space="preserve"
   xmlns="http://www.w3.org/2000/svg"
   xmlns:svg="http://www.w3.org/2000/svg"><defs
     id="defs1" /><g
     id="layer1"><path
       style="fill:#ffffff;stroke-width:0"
       d="m 51.484211,104.96307 c -0.676461,-0.09 -1.682777,-0.21064 -2.236254,-0.26827 -4.076221,-0.42434 -9.22635,-2.08367 -12.818548,-4.13006 C 33.580925,98.942023 29.941911,96.002765 27.700538,93.514352 25.331263,90.883948 24.103362,88.992498 22.166343,84.989589 21.64366,83.909438 20.716951,80.9591 20.518259,79.742578 20.455747,79.359585 20.338323,78.67732 20.257407,78.226444 20.176488,77.775568 20.074358,73.948242 20.030409,69.721271 19.98647,65.4943 19.925934,60.583211 19.895878,58.80773 l -0.05464,-3.228145 34.158764,2.73e-4 34.15876,2.83e-4 -0.0017,10.298431 c -0.0017,10.072249 -0.15515,13.121651 -0.729818,14.499783 -0.07049,0.169091 -0.252447,0.813634 -0.404341,1.432348 -0.626482,2.552065 -2.719812,6.80709 -4.451621,9.048626 -0.37964,0.491379 -0.940705,1.241091 -1.246817,1.666032 -0.602815,0.836806 -5.12192,5.061207 -6.30173,5.890767 -2.13398,1.500471 -3.703857,2.398822 -6.095745,3.488262 -2.232261,1.01672 -5.74803,2.14933 -7.276784,2.3442 -0.496895,0.0633 -1.151001,0.16414 -1.453561,0.22402 -1.523529,0.30151 -5.463744,0.70657 -6.587994,0.67728 -0.491979,-0.0127 -1.447977,-0.0969 -2.124444,-0.18683 z m 3.735941,-2.68874 c 0.617384,-0.14183 1.319846,-0.54929 2.044205,-1.18578 1.646823,-1.447054 1.916937,-2.037611 1.926678,-4.212208 0.008,-1.665905 -0.05279,-1.937934 -0.622525,-2.809472 -0.811236,-1.241053 -1.923091,-2.128903 -3.055338,-2.439797 l -0.898202,-0.246614 0.0017,-1.145989 c 0.0017,-1.293126 -0.17901,-1.13469 3.129343,-2.745061 0.922458,-0.449016 1.93454,-0.98128 2.249088,-1.182816 0.314533,-0.201542 1.270539,-0.700634 2.124437,-1.109106 2.32454,-1.111965 4.662115,-2.387083 4.847602,-2.64431 0.09035,-0.125324 0.165839,-1.495929 0.167724,-3.045819 l 0.0036,-2.817982 h 1.068362 c 0.60503,0 1.283919,-0.138368 1.565383,-0.319034 0.48224,-0.30956 0.497008,-0.428481 0.497008,-4.001482 v -3.682444 l -0.567602,-0.197783 c -0.312183,-0.108764 -2.227955,-0.175643 -4.257282,-0.148649 -2.987833,0.03979 -3.728838,0.107277 -3.895554,0.354796 -0.345983,0.513639 -0.501274,2.322578 -0.414478,4.8282 0.07661,2.211138 0.121224,2.414823 0.608302,2.776286 0.356563,0.264601 0.877342,0.390088 1.619005,0.390088 h 1.093353 v 2.148463 2.148452 l -1.100813,0.511239 c -0.605459,0.281191 -1.482625,0.748679 -1.949252,1.038889 -0.466635,0.290201 -1.455568,0.804894 -2.197641,1.143736 -0.742067,0.338841 -2.003321,0.977789 -2.802784,1.419879 -0.799454,0.442089 -1.529034,0.805605 -1.621283,0.807804 -0.09224,0.0023 -0.167725,-4.330549 -0.167725,-9.628346 v -9.632369 h 1.851058 c 1.313427,0 1.995415,-0.09265 2.348067,-0.319035 0.578767,-0.371519 0.647621,-1.174793 0.165905,-1.935345 -0.178443,-0.281797 -0.530239,-0.881258 -0.781694,-1.332134 -0.251454,-0.450876 -0.758195,-1.234791 -1.126076,-1.742028 -0.367872,-0.507236 -0.872841,-1.310378 -1.122152,-1.784767 -0.249305,-0.474389 -0.552579,-0.918765 -0.673932,-0.987499 -0.121358,-0.06876 -0.361551,-0.434031 -0.533758,-0.811769 -0.365437,-0.801531 -1.074484,-1.213445 -1.801087,-1.046315 -0.508174,0.116893 -1.505217,1.433425 -3.351472,4.425413 -0.452119,0.732668 -1.21765,1.931588 -1.701194,2.664264 -0.633827,0.960383 -0.844234,1.475123 -0.753974,1.844498 0.205684,0.841711 0.700587,1.024717 2.771068,1.024717 h 1.913982 l -0.057,9.786069 c -0.04474,7.686781 -0.116725,9.771847 -0.335439,9.719736 -0.950603,-0.226507 -5.684617,-1.744485 -5.869072,-1.88196 -0.123013,-0.09167 -0.575835,-0.249829 -1.006312,-0.351481 l -0.782686,-0.184831 -0.06342,-2.182847 -0.06342,-2.182849 0.871654,-0.407534 c 1.298609,-0.607161 2.389107,-2.265656 2.37486,-3.611852 -0.01921,-1.807374 -1.338286,-3.42048 -3.203622,-3.917442 -1.022428,-0.272395 -1.41831,-0.285649 -2.41691,-0.08083 -2.174971,0.446078 -3.235043,1.691327 -3.32186,3.902165 -0.07033,1.790884 0.449917,2.707161 2.139516,3.768173 l 0.719721,0.451968 -0.03968,2.285599 c -0.02185,1.257088 0.06612,2.64566 0.195391,3.085726 0.213959,0.728205 0.360752,0.847478 1.633219,1.327126 0.768971,0.289865 2.505065,0.868327 3.858001,1.28551 1.352936,0.417179 2.71494,0.877724 3.026673,1.023434 0.311722,0.145706 0.931924,0.327692 1.378189,0.404428 0.804794,0.138366 0.81202,0.148769 0.886774,1.276691 l 0.07538,1.137192 -0.917517,0.360219 c -4.165921,1.635568 -4.993533,6.889206 -1.50674,9.564639 1.009356,0.7745 2.606328,1.3992 3.002787,1.17464 0.09528,-0.054 0.236661,-0.004 0.314203,0.11086 0.143962,0.21346 0.836949,0.14844 2.507777,-0.23534 z m 4.919984,-5.959197 c -0.05351,-0.254924 -0.09929,-0.09459 -0.10177,0.356267 -0.0027,0.45088 0.04124,0.659456 0.09726,0.46351 0.05596,-0.195934 0.05799,-0.564843 0.0043,-0.819777 z M 59.279071,83.065111 c 0.166864,-0.0969 0.217168,-0.224141 0.111826,-0.282769 -0.105374,-0.0586 -0.321351,0.02214 -0.479945,0.179313 -0.31953,0.316831 -0.103757,0.377464 0.368131,0.103454 z m 2.268278,-1.252151 c 0,-0.112708 -0.04438,-0.204942 -0.09863,-0.204942 -0.05421,0 -0.160809,0.09223 -0.236826,0.204942 -0.07602,0.112738 -0.03177,0.204942 0.09863,0.204942 0.130261,0 0.236828,-0.09223 0.236826,-0.204942 z m 2.23626,-1.229664 c 0,-0.112707 -0.04441,-0.204941 -0.09863,-0.204941 -0.05421,0 -0.160808,0.09223 -0.236827,0.204941 -0.07602,0.112739 -0.03177,0.204942 0.09863,0.204942 0.130262,0 0.236828,-0.09223 0.236827,-0.204942 z M 20.555263,75.309893 c -0.05673,-0.19939 -0.106797,-0.08587 -0.111364,0.252287 -0.0043,0.338156 0.04186,0.501311 0.103101,0.362554 0.0613,-0.13876 0.06497,-0.415433 0.008,-0.614833 z m 50.537109,-0.708395 c -0.07136,-0.163479 -0.124371,-0.11492 -0.135093,0.123808 -0.0097,0.216042 0.04315,0.337083 0.117454,0.268969 0.07432,-0.06813 0.0822,-0.244856 0.01754,-0.392807 z M 20.553055,74.191611 c -0.07136,-0.163479 -0.12437,-0.11492 -0.135092,0.123808 -0.0097,0.216042 0.04314,0.337093 0.117454,0.268998 0.07432,-0.06813 0.0822,-0.244885 0.01754,-0.392809 z m 0,-0.819779 c -0.07136,-0.163479 -0.12437,-0.11492 -0.135092,0.123808 -0.0097,0.216042 0.04314,0.337086 0.117454,0.268999 0.07432,-0.06813 0.0822,-0.244856 0.01754,-0.39281 z m 0.01457,-10.157528 c -0.038,-1.549889 -0.06911,-0.281798 -0.06911,2.817973 0,3.099779 0.03111,4.367874 0.06911,2.817985 0.03799,-1.549889 0.03799,-4.08607 0,-5.635958 z m 39.567264,1.959773 c -0.07136,-0.16348 -0.124372,-0.114921 -0.135093,0.123839 -0.0097,0.216041 0.04315,0.337083 0.117451,0.268998 0.07433,-0.06813 0.0822,-0.244856 0.01754,-0.39281 z m -11.893084,-3.03573 c 0.07601,-0.112706 0.03177,-0.20494 -0.09863,-0.20494 -0.130263,0 -0.236829,0.09223 -0.236829,0.20494 0,0.112707 0.04438,0.204941 0.09864,0.204941 0.05421,0 0.160808,-0.09223 0.236828,-0.204941 z m -27.6886,-2.907646 c -0.07136,-0.163479 -0.124371,-0.11492 -0.135094,0.123808 -0.0097,0.216042 0.04316,0.337093 0.117454,0.268998 0.07432,-0.06813 0.0822,-0.244855 0.01754,-0.392809 z m 0,-1.229662 c -0.07136,-0.16348 -0.124371,-0.114921 -0.135094,0.123807 -0.0097,0.216041 0.04316,0.337092 0.117454,0.268997 0.07432,-0.06813 0.0822,-0.244854 0.01754,-0.392808 z m 0.135655,-1.396183 c 0.06436,-0.225444 0.02581,-0.409883 -0.08572,-0.409883 -0.111464,0 -0.202705,0.184468 -0.202705,0.409883 0,0.225445 0.03862,0.409894 0.08572,0.409894 0.0472,0 0.13837,-0.184437 0.202704,-0.409894 z m 32.07668,-0.32876 c -0.07433,-0.06813 -0.267175,-0.07534 -0.428616,-0.01607 -0.178381,0.0654 -0.125395,0.113981 0.135094,0.123808 0.235734,0.0089 0.367813,-0.03955 0.293517,-0.107643 z"
       id="bottom" /><path
       style="mix-blend-mode:normal;fill:#ffffff;stroke-width:0"
       d="m 19.626816,47.38134 c 0.08533,-2.865207 0.201992,-5.595551 0.259251,-6.067434 0.841867,-6.936602 3.143699,-12.516048 7.474105,-18.116596 1.605901,-2.076925 4.778951,-5.255249 5.719622,-5.72913 0.279506,-0.140795 0.508188,-0.354616 0.508188,-0.475165 0,-0.120512 -2.339798,-2.741826 -5.199555,-5.825087 L 23.188875,5.5619925 24.488688,4.2562869 c 0.714904,-0.71813 1.64194,-1.6642095 2.060086,-2.1023801 0.418154,-0.438182 0.806193,-0.7966871 0.862322,-0.7966871 0.05616,0 2.646028,2.7637693 5.755344,6.1416983 3.934289,4.274179 5.733535,6.072123 5.917148,5.912902 0.334919,-0.290439 4.003922,-1.842923 5.345713,-2.261985 0.559005,-0.174568 1.118013,-0.3491 1.24223,-0.387837 2.453983,-0.7651081 4.042231,-0.9476794 8.243926,-0.9476794 3.389843,0 4.957271,0.1121658 6.888753,0.4930164 0.894791,0.176417 4.336538,1.313098 5.194802,1.715628 0.372671,0.174787 1.27185,0.603026 1.998179,0.951663 l 1.320593,0.633887 5.681094,-6.1874871 5.681088,-6.1874917 0.797327,0.8585296 c 0.438526,0.4721887 1.367389,1.432318 2.064137,2.1336155 l 1.266824,1.275094 -5.169727,5.5768687 c -2.843353,3.067286 -5.169735,5.643131 -5.169735,5.724121 0,0.08101 0.894425,0.932998 1.987608,1.893368 2.422881,2.128517 4.941838,5.103669 6.555282,7.742467 2.167382,3.544776 3.493001,6.879041 4.598736,11.567023 0.653683,2.771375 0.700314,3.278465 0.805882,8.763494 l 0.112039,5.821913 -34.528343,3.84e-4 -34.528335,3.93e-4 z m 0.957976,4.289439 c -0.112409,-0.101115 -0.280273,-0.294176 -0.372973,-0.428978 -0.09621,-0.139887 -0.170037,-0.06094 -0.172008,0.183859 -0.0016,0.238453 0.163718,0.428976 0.372973,0.428976 0.207037,0 0.284452,-0.08274 0.172008,-0.183857 z m -0.388714,-2.080765 c -0.05404,-0.304915 -0.100272,-0.113187 -0.102782,0.426114 -0.0027,0.539293 0.04163,0.78878 0.09824,0.554411 0.05652,-0.234354 0.05856,-0.67561 0.0044,-0.980525 z m 0,-2.696477 c -0.05404,-0.304914 -0.100272,-0.113149 -0.102782,0.42613 -0.0027,0.539291 0.04163,0.788778 0.09824,0.554411 0.05652,-0.234355 0.05856,-0.675611 0.0044,-0.980541 z m -0.0098,-2.944445 c -0.06271,-0.168547 -0.113922,-0.03048 -0.113922,0.306402 0,0.337058 0.05131,0.474942 0.113922,0.306404 0.06269,-0.168512 0.06269,-0.444293 0,-0.612828 z m 21.420076,-2.894045 c 3.275086,-2.137331 3.226808,-7.262214 -0.08929,-9.477527 -0.613825,-0.410067 -1.170502,-0.545782 -2.262405,-0.551547 -1.771662,-0.0094 -3.000528,0.675987 -3.988265,2.22429 -0.607168,0.95175 -0.661733,1.212254 -0.661733,3.159216 0,1.858043 0.07022,2.234767 0.564651,3.029186 0.31056,0.49898 0.920383,1.144018 1.35517,1.433412 1.429577,0.951529 3.774786,1.035969 5.081868,0.182951 z m 29.791762,-0.133868 c 0.532197,-0.365426 1.248308,-1.145906 1.591353,-1.734415 0.524875,-0.900433 0.623712,-1.336918 0.623712,-2.754326 0,-2.099216 -0.700903,-3.554966 -2.246638,-4.666185 -0.894436,-0.643003 -1.248205,-0.747933 -2.521574,-0.747933 -1.290484,0 -1.615532,0.09951 -2.524707,0.772859 -0.573953,0.425082 -1.325479,1.279467 -1.670073,1.898646 -0.523778,0.941146 -0.621461,1.379922 -0.595581,2.67524 0.03725,1.864346 0.564743,3.115983 1.76874,4.1969 1.028746,0.923581 1.819886,1.176471 3.407919,1.089384 0.839881,-0.04607 1.489161,-0.26483 2.166849,-0.73017 z m 2.697181,-6.60414 c -0.07357,-0.208052 -0.18217,-0.325702 -0.241368,-0.261418 -0.05927,0.06422 -0.04068,0.234463 0.04122,0.378264 0.222717,0.391101 0.352878,0.31511 0.200155,-0.11685 z M 27.825979,23.75671 c 0.213523,-0.35367 0.276566,-0.568122 0.14012,-0.476615 -0.260719,0.174897 -0.7866,1.119629 -0.623216,1.119629 0.05217,0 0.269577,-0.289351 0.483096,-0.643014 z m 3.95511,-4.244515 c 0.262625,-0.273321 0.214626,-0.268602 -0.213492,0.02105 -0.303737,0.205441 -0.594908,0.529587 -0.647036,0.720281 -0.07633,0.279157 -0.03467,0.27506 0.21349,-0.02105 0.169535,-0.202248 0.460702,-0.526352 0.647038,-0.72027 z m 10.954254,-6.878852 c 0.07678,-0.134809 0.03209,-0.24513 -0.09959,-0.24513 -0.131564,0 -0.239194,0.110325 -0.239194,0.24513 0,0.134808 0.04487,0.245129 0.09963,0.245129 0.05476,0 0.162415,-0.110325 0.239194,-0.245129 z m 2.7163,-1.178322 c -0.06952,-0.07547 -0.251795,-1.53e-4 -0.404997,0.167385 -0.221412,0.242118 -0.195474,0.270268 0.126452,0.13724 0.22275,-0.09203 0.3481,-0.229131 0.278533,-0.304587 z m 11.682329,-1.190217 c -0.155294,-0.06805 -0.409372,-0.06805 -0.564654,0 -0.155265,0.06796 -0.02808,0.123636 0.282346,0.123636 0.310556,0 0.437601,-0.0557 0.282311,-0.123636 z M 76.98207,6.3211681 c 0.280944,-0.3887971 0.272957,-0.3974638 -0.08525,-0.092543 -0.376227,0.320225 -0.495875,0.5215382 -0.309988,0.5215382 0.04685,0 0.224753,-0.193035 0.395251,-0.428985 z m 1.12931,-1.2256616 c 0.280946,-0.3887972 0.272956,-0.3974639 -0.08527,-0.092543 -0.217401,0.1850532 -0.395252,0.3780839 -0.395252,0.4289861 0,0.2017404 0.185478,0.071901 0.480533,-0.3364411 z"
       id="head" /></g></svg>
